<?xml version="1.0" encoding="utf-8"?>
<!-- Generator: Adobe Illustrator 27.3.1, SVG Export Plug-In . SVG Version: 6.00 Build 0)  -->
<svg version="1.1" id="Layer_1" xmlns="http://www.w3.org/2000/svg" xmlns:xlink="http://www.w3.org/1999/xlink" x="0px" y="0px"
	 viewBox="0 0 700 300" style="enable-background:new 0 0 700 300;" xml:space="preserve">
<style type="text/css">
	.st0{fill:#A45C40;}
	.st1{fill:url(#SVGID_1_);}
</style>
<g>
	<g>
		<g>
			<path class="st0" d="M150,151.1h14.7c4,0,7.7-0.4,11.2-1.3c3.4-0.8,6.4-2.1,8.9-3.9c2.5-1.7,4.5-4,6-6.9
				c1.5-2.8,2.2-6.3,2.2-10.3c0-7.9-2.2-13.7-6.5-17.5l3.1-17.3c4.9,1.8,8.9,4.3,12.1,7.6c3.2,3.2,5.7,7.1,7.4,11.5
				c1.7,4.5,2.5,9.3,2.5,14.6c0,4.7-0.7,8.9-2.1,12.6c-1.4,3.8-3.3,7-5.6,9.8c-2.3,2.8-5,5.2-8.1,7.2c-3,2-6.1,3.7-9.2,4.9
				l24.1,38.3c3.5,5.6-0.5,12.9-7.1,12.9l0,0c-2.9,0-5.7-1.5-7.2-4.1L170,165.6h-20v39.5c0,4.7-3.8,8.4-8.4,8.4l0,0
				c-4.7,0-8.4-3.8-8.4-8.4v-53.9L150,151.1z"/>
		</g>
		<g>
			<g>
				<path class="st0" d="M151.6,124.4c-1.8,0-3.6-0.7-5-2.1l-18.9-18.9c-2.8-2.8-2.8-7.2,0-10l18.9-18.9c2.8-2.8,7.2-2.8,10,0
					s2.8,7.2,0,10l-13.9,13.9l13.9,13.9c2.8,2.8,2.8,7.2,0,10C155.2,123.7,153.4,124.4,151.6,124.4z"/>
			</g>
			<path class="st0" d="M209.2,113.2c-1.7-4.5-4.1-8.3-7.4-11.5c-3.2-3.2-7.3-5.8-12.1-7.6c-4.9-1.8-10.4-2.7-16.8-2.7h-39.8v17.5
				l13.5,13.5c1,1,2.1,1.6,3.4,1.9v-18.5h17.7c8.3,0,14.6,1.9,18.9,5.6c4.3,3.8,6.5,9.6,6.5,17.5c0,4-0.7,7.4-2.2,10.3
				c-1.5,2.8-3.5,5.1-6,6.9c-2.5,1.7-5.5,3-8.9,3.9c-3.4,0.8-7.1,1.3-11.2,1.3H150v-24.2c-1.7-0.3-3.4-1.1-4.6-2.4l-12.2-12.2v53.2
				l16.9,0.3h3c11.3,0,33.7-3.3,33.7-3.3c3.1-1.3,6.2-2.9,9.2-4.9s5.7-4.4,8.1-7.2c2.3-2.8,4.2-6,5.6-9.8c1.4-3.7,2.1-8,2.1-12.6
				C211.7,122.5,210.9,117.6,209.2,113.2z"/>
		</g>
	</g>
	
		<linearGradient id="SVGID_1_" gradientUnits="userSpaceOnUse" x1="239.9412" y1="135.2" x2="574.3588" y2="135.2" gradientTransform="matrix(1 0 0 -1 0 300)">
		<stop  offset="0" style="stop-color:#B06D52"/>
		<stop  offset="1" style="stop-color:#D19C84"/>
	</linearGradient>
	<path class="st1" d="M245.6,116h46.6c3.2,0,5.7,2.6,5.7,5.7v0.2c0,3.2-2.6,5.7-5.7,5.7h-38.3v28.9h34.3c3.2,0,5.7,2.6,5.7,5.7l0,0
		c0,3.2-2.6,5.7-5.7,5.7h-34.3v32.7h38.7c3.2,0,5.7,2.6,5.7,5.7v0.2c0,3.2-2.6,5.7-5.7,5.7h-47c-3.2,0-5.7-2.6-5.7-5.7v-84.8
		C239.9,118.5,242.4,116,245.6,116z M380.5,121.7v0.2c0,3.2-2.6,5.7-5.7,5.7h-36.7v31.2h33.4c3.2,0,5.7,2.6,5.7,5.7l0,0
		c0,3.2-2.6,5.7-5.7,5.7h-33.4v36.3c0,3.2-2.6,5.7-5.7,5.7h-2.6c-3.2,0-5.7-2.6-5.7-5.7v-84.8c0-3.2,2.6-5.7,5.7-5.7h45.1
		C377.9,116,380.5,118.5,380.5,121.7z M411.5,116L411.5,116c3.9,0,7,3.1,7,7v50.5c0,10.3,1.9,17.6,5.7,22c3.8,4.4,9.8,6.6,18.2,6.6
		c8.2,0,14.3-2.4,18.1-7.3s5.7-11.4,5.7-19.4V123c0-3.9,3.1-7,7-7l0,0c3.9,0,7,3.1,7,7v51.9c0,13.1-3.4,22.9-10.1,29.2
		c-6.7,6.3-16,9.5-27.8,9.5c-11.9,0-21.2-3.1-27.9-9.4c-6.7-6.3-10-16.3-10-30V123C404.5,119.1,407.6,116,411.5,116z M511.1,121.9
		c0-3.2,2.6-5.9,5.9-5.9h25.4c5,0,9.4,0.7,13.2,2.1s7,3.4,9.5,6c2.5,2.5,4.5,5.6,5.8,9.1s2,7.4,2,11.5c0,3.7-0.6,7-1.7,9.9
		c-1.1,3-2.6,5.5-4.4,7.7c-1.8,2.2-3.9,4.1-6.3,5.7c-2.4,1.6-4.8,2.9-7.3,3.9l20.3,32.3c2.2,3.5-0.3,8-4.4,8h-3.3
		c-1.8,0-3.5-1-4.5-2.5l-21.2-35.2h-15.7V207c0,2.9-2.3,5.2-5.2,5.2h-2.8c-2.9,0-5.2-2.3-5.2-5.2L511.1,121.9L511.1,121.9z
		 M524.4,163H536c3.2,0,6.1-0.3,8.8-1s5-1.7,7-3.1s3.6-3.2,4.7-5.4c1.2-2.2,1.8-4.9,1.8-8.1c0-6.2-1.7-10.8-5.1-13.7
		c-3.4-3-8.4-4.4-14.9-4.4h-13.9L524.4,163L524.4,163z"/>
</g>
</svg>
