<?xml version="1.0" encoding="UTF-8"?>
<svg id="Layer_1" data-name="Layer 1" xmlns="http://www.w3.org/2000/svg" xmlns:xlink="http://www.w3.org/1999/xlink" viewBox="0 0 175.71 175.71">
  <defs>
    <style>
      .cls-1 {
        fill: url(#linear-gradient);
      }

      .cls-2 {
        fill: #171044;
      }
    </style>
    <linearGradient id="linear-gradient" x1="50.4" y1="52.48" x2="124.87" y2="85.63" gradientUnits="userSpaceOnUse">
      <stop offset="0" stop-color="#3ed6b9"/>
      <stop offset="1" stop-color="#1bdb88"/>
    </linearGradient>
  </defs>
  <g>
    <path class="cls-2" d="m11.26,136.02h11.12c5.28,0,8.84,2.56,8.84,7.52,0,4.04-2.76,6.48-5.44,7.32.8.68,1.4,1.6,1.88,2.56,1.12,2.28,1.88,4.8,4.24,4.8.6,0,1.08-.2,1.08-.2l-.52,4.76s-1.44.36-2.68.36c-3.2,0-5.04-1.24-6.92-5.52-.8-1.92-1.92-5.28-3.4-5.28h-1.52v10.68h-6.68v-27Zm6.68,4.84v6.64h2.4c1.92,0,4.16-.6,4.16-3.48,0-2.36-1.52-3.16-3.36-3.16h-3.2Z"/>
    <path class="cls-2" d="m45.38,136.02h17.88v4.96h-11.2v5.8h9.4v4.96h-9.4v6.32h11.6v4.96h-18.28v-27Z"/>
    <path class="cls-2" d="m76.74,136.02h17.48v4.96h-10.8v7h8.8v4.96h-8.8v10.08h-6.68v-27Z"/>
    <path class="cls-2" d="m106.78,136.02h6.68v17.32c0,3.44,1.44,4.88,4.2,4.88s4.36-1.4,4.36-5v-17.2h6.48v17.08c0,6.2-4.04,10.4-11.04,10.4-6.56,0-10.68-3.84-10.68-9.8v-17.68Z"/>
    <path class="cls-2" d="m142.74,136.02h11.12c5.28,0,8.84,2.56,8.84,7.52,0,4.04-2.76,6.48-5.44,7.32.8.68,1.4,1.6,1.88,2.56,1.12,2.28,1.88,4.8,4.24,4.8.6,0,1.08-.2,1.08-.2l-.52,4.76s-1.44.36-2.68.36c-3.2,0-5.04-1.24-6.92-5.52-.8-1.92-1.92-5.28-3.4-5.28h-1.52v10.68h-6.68v-27Zm6.68,4.84v6.64h2.4c1.92,0,4.16-.6,4.16-3.48,0-2.36-1.52-3.16-3.36-3.16h-3.2Z"/>
  </g>
  <path class="cls-1" d="m130.34,47.33c0-17.09-12.58-24.47-26.38-24.47h-35.86c-4.96,12.07,11.1,19.66,16.78,21.98l1.72-8.02c.4-1.87,2.69-2.58,4.07-1.26l16.61,15.76c1.14,1.08.73,2.98-.75,3.5l-21.61,7.58c-1.8.63-3.6-.95-3.2-2.82l1.51-7.06s-14.53-3-27.02-13c0,0-2.5,3.33,5.11,8.19l-15.94,59.23h26.52l5.27-19.1,2.05-7.7h1.5c9.02,3.96-1.02,27.48,24.81,27.48,4.65,0,9.98-.96,9.98-.96l6.97-18.87s-2.87,1.09-6.29,1.09c-10.25,0-4.44-6.56-12.65-12.71,2.73-.68,5.47-1.5,8.48-2.73,10.25-4.24,18.32-12.44,18.32-26.11Z"/>
</svg>